<svg xmlns="http://www.w3.org/2000/svg" width="25" height="25" viewBox="0 0 25 25">
  <path id="Icon_material-date-range" data-name="Icon material-date-range" d="M12.833,14.25H10.056v2.5h2.778Zm5.556,0H15.611v2.5h2.778Zm5.556,0H21.167v2.5h2.778ZM26.722,5.5H25.333V3H22.556V5.5H11.444V3H8.667V5.5H7.278A2.636,2.636,0,0,0,4.514,8L4.5,25.5A2.649,2.649,0,0,0,7.278,28H26.722A2.658,2.658,0,0,0,29.5,25.5V8A2.658,2.658,0,0,0,26.722,5.5Zm0,20H7.278V11.75H26.722Z" transform="translate(-4.5 -3)" fill="#45c0be"/>
</svg>
