<svg xmlns="http://www.w3.org/2000/svg" xmlns:xlink="http://www.w3.org/1999/xlink" width="78" height="78" viewBox="0 0 78 78">
  <defs>
    <filter id="Ellipse_30" x="0" y="0" width="78" height="78" filterUnits="userSpaceOnUse">
      <feOffset dy="3" input="SourceAlpha"/>
      <feGaussianBlur stdDeviation="3" result="blur"/>
      <feFlood flood-opacity="0.161"/>
      <feComposite operator="in" in2="blur"/>
      <feComposite in="SourceGraphic"/>
    </filter>
  </defs>
  <g id="Group_387" data-name="Group 387" transform="translate(-39 -178)">
    <g transform="matrix(1, 0, 0, 1, 39, 178)" filter="url(#Ellipse_30)">
      <circle id="Ellipse_30-2" data-name="Ellipse 30" cx="30" cy="30" r="30" transform="translate(9 6)" fill="#45c0be"/>
    </g>
    <path id="Icon_ionic-ios-call" data-name="Icon ionic-ios-call" d="M40.837,33.807a31.437,31.437,0,0,0-6.567-4.394c-1.968-.945-2.689-.926-4.082.078-1.159.838-1.91,1.617-3.245,1.325s-3.966-2.28-6.518-4.823-4.54-5.183-4.823-6.518.5-2.085,1.325-3.245c1-1.393,1.033-2.114.078-4.082A30.815,30.815,0,0,0,12.61,5.581c-1.432-1.432-1.754-1.12-2.543-.838A14.471,14.471,0,0,0,7.739,5.98a7.025,7.025,0,0,0-2.8,2.952c-.555,1.2-1.2,3.43,2.075,9.256A51.649,51.649,0,0,0,16.1,30.3h0l.01.01.01.01h0A51.85,51.85,0,0,0,28.229,39.4c5.826,3.274,8.058,2.631,9.256,2.075a6.905,6.905,0,0,0,2.952-2.8,14.471,14.471,0,0,0,1.237-2.329C41.957,35.561,42.279,35.239,40.837,33.807Z" transform="translate(54.324 190.31)" fill="#fff"/>
  </g>
</svg>
