<svg xmlns="http://www.w3.org/2000/svg" width="25" height="25" viewBox="0 0 25 25">
  <path id="Icon_awesome-key" data-name="Icon awesome-key" d="M25,8.594a8.6,8.6,0,0,1-10.2,8.444l-1.172,1.319a1.172,1.172,0,0,1-.876.393H10.938V20.7a1.172,1.172,0,0,1-1.172,1.172H7.812v1.953A1.172,1.172,0,0,1,6.641,25H1.172A1.172,1.172,0,0,1,0,23.828V20.017a1.172,1.172,0,0,1,.343-.829l7.9-7.9A8.595,8.595,0,1,1,25,8.594ZM16.406,6.25A2.344,2.344,0,1,0,18.75,3.906,2.344,2.344,0,0,0,16.406,6.25Z" fill="#45c0be"/>
</svg>
