<svg xmlns="http://www.w3.org/2000/svg" width="60" height="42" viewBox="0 0 60 42">
  <g id="Icon_ionic-ios-mail" data-name="Icon ionic-ios-mail" transform="translate(-3.375 -7.875)">
    <path id="Path_150" data-name="Path 150" d="M62.885,10.4,47.365,26.292a.281.281,0,0,0,0,.406L58.226,38.324a1.881,1.881,0,1,1-2.654,2.667L44.755,29.409a.3.3,0,0,0-.418,0l-2.639,2.7a11.584,11.584,0,0,1-8.279,3.508A11.816,11.816,0,0,1,24.966,32l-2.538-2.595a.3.3,0,0,0-.418,0L11.192,40.992a1.881,1.881,0,1,1-2.654-2.667L19.4,26.7a.31.31,0,0,0,0-.406L3.865,10.4a.284.284,0,0,0-.49.2V42.4A4.641,4.641,0,0,0,7.99,47.037H58.76A4.641,4.641,0,0,0,63.375,42.4V10.606A.288.288,0,0,0,62.885,10.4Z" transform="translate(0 2.838)" fill="#45c0be"/>
    <path id="Path_151" data-name="Path 151" d="M32.385,35.73a7.608,7.608,0,0,0,5.62-2.495L60.559,8.94a4.366,4.366,0,0,0-2.846-1.065H7.072A4.338,4.338,0,0,0,4.226,8.94l22.554,24.3A7.61,7.61,0,0,0,32.385,35.73Z" transform="translate(0.99 0)" fill="#45c0be"/>
  </g>
</svg>
