<svg xmlns="http://www.w3.org/2000/svg" width="42" height="56" viewBox="0 0 42 56">
  <path id="Icon_awesome-transgender" data-name="Icon awesome-transgender" d="M40.687,0H32.047a1.315,1.315,0,0,0-.93,2.242l1.848,1.848-8.827,8.827A15.751,15.751,0,1,0,12.25,41.606v3.019H8.312A1.316,1.316,0,0,0,7,45.938v4.375a1.316,1.316,0,0,0,1.312,1.313H12.25v3.063A1.316,1.316,0,0,0,13.562,56h4.375a1.316,1.316,0,0,0,1.312-1.312V51.625h3.938A1.316,1.316,0,0,0,24.5,50.313V45.938a1.316,1.316,0,0,0-1.312-1.312H19.25V41.606a15.754,15.754,0,0,0,9.833-23.745l8.827-8.827,1.848,1.848A1.313,1.313,0,0,0,42,9.953V1.312A1.316,1.316,0,0,0,40.688,0ZM15.75,35a8.75,8.75,0,1,1,8.75-8.75A8.762,8.762,0,0,1,15.75,35Z" fill="#45c0be"/>
</svg>
