<svg xmlns="http://www.w3.org/2000/svg" width="42" height="42" viewBox="0 0 42 42">
  <path id="Icon_material-language" data-name="Icon material-language" d="M23.979,3A21,21,0,1,0,45,24,20.99,20.99,0,0,0,23.979,3ZM38.532,15.6H32.337a32.863,32.863,0,0,0-2.9-7.476A16.862,16.862,0,0,1,38.532,15.6ZM24,7.284A29.582,29.582,0,0,1,28.011,15.6H19.989A29.582,29.582,0,0,1,24,7.284ZM7.746,28.2a16.427,16.427,0,0,1,0-8.4h7.1A34.682,34.682,0,0,0,14.55,24a34.682,34.682,0,0,0,.294,4.2Zm1.722,4.2h6.195a32.863,32.863,0,0,0,2.9,7.476A16.772,16.772,0,0,1,9.468,32.4Zm6.195-16.8H9.468a16.772,16.772,0,0,1,9.093-7.476A32.863,32.863,0,0,0,15.663,15.6ZM24,40.716A29.582,29.582,0,0,1,19.989,32.4h8.022A29.582,29.582,0,0,1,24,40.716ZM28.914,28.2H19.086A30.9,30.9,0,0,1,18.75,24a30.628,30.628,0,0,1,.336-4.2h9.828A30.629,30.629,0,0,1,29.25,24,30.9,30.9,0,0,1,28.914,28.2Zm.525,11.676a32.863,32.863,0,0,0,2.9-7.476h6.195a16.862,16.862,0,0,1-9.093,7.476ZM33.156,28.2A34.682,34.682,0,0,0,33.45,24a34.682,34.682,0,0,0-.294-4.2h7.1a16.427,16.427,0,0,1,0,8.4Z" transform="translate(-3 -3)" fill="#45c0be"/>
</svg>
