<svg xmlns="http://www.w3.org/2000/svg" width="19" height="25" viewBox="0 0 19 25">
  <g id="Icon_ionic-ios-document" data-name="Icon ionic-ios-document" transform="translate(-7.313 -3.938)">
    <path id="Path_154" data-name="Path 154" d="M21.938,10.9h6.4a.348.348,0,0,0,.352-.352h0a2.081,2.081,0,0,0-.752-1.61L22.57,4.465a2.258,2.258,0,0,0-1.448-.52h0a.519.519,0,0,0-.52.52v5.1A1.335,1.335,0,0,0,21.938,10.9Z" transform="translate(-2.375)" fill="#45c0be"/>
    <path id="Path_155" data-name="Path 155" d="M17.5,8.938v-5H9.313a2.006,2.006,0,0,0-2,2v21a2.006,2.006,0,0,0,2,2h15a2.006,2.006,0,0,0,2-2V11.75h-6A2.817,2.817,0,0,1,17.5,8.938Z" fill="#45c0be"/>
  </g>
</svg>
